<svg xmlns="http://www.w3.org/2000/svg" viewBox="0 0 50 50" width="100%" height="100%">
  <circle cx="25" cy="25" r="23" fill="#F0FFF0" stroke="#32CD32" stroke-width="2"/>
  <path fill="#32CD32" d="M15 25c0-1.657-1.343-3-3-3s-3 1.343-3 3 1.343 3 3 3 3-1.343 3-3zm26 0c0-1.657-1.343-3-3-3s-3 1.343-3 3 1.343 3 3 3 3-1.343 3-3zm-13 0c0-1.657-1.343-3-3-3s-3 1.343-3 3 1.343 3 3 3 3-1.343 3-3z"/>
  <path stroke="#32CD32" stroke-width="2" d="M12 25h8M25 25h8"/>
  <path fill="#32CD32" d="M37.606 20.393a1 1 0 011.414 0l4.596 4.596a1 1 0 010 1.414l-4.596 4.596a1 1 0 01-1.414-1.414L41.784 25l-4.178-4.192a1 1 0 010-1.415zM12.394 20.393a1 1 0 00-1.414 0L6.384 24.99a1 1 0 000 1.414l4.596 4.596a1 1 0 001.414-1.414L8.216 25l4.178-4.192a1 1 0 000-1.415z"/>
</svg> 