<svg xmlns="http://www.w3.org/2000/svg" viewBox="0 0 50 50" width="100%" height="100%">
  <path fill="#1572B6" d="M5.482 2.659l3.535 39.692L24.978 47.3l16.043-4.959 3.535-39.682z"/>
  <path fill="#33A9DC" d="M25 5.846v37.453l12.85-3.983 2.932-33.47z"/>
  <path fill="#fff" d="M25 20.196h6.528l.45-5.06H25v-4.936h12.27l-.12 1.353-1.232 13.816H25v-5.173z"/>
  <path fill="#EBEBEB" d="M25.029 33.218l-.02.006-5.147-1.39-.328-3.68h-4.644l.646 7.237 9.472 2.627.021-.006v-4.794z"/>
  <path fill="#fff" d="M31.299 25.368l-.6 6.72-5.699 1.56v4.795l10.622-2.944.079-.882.903-10.123-5.305.874z"/>
  <path fill="#EBEBEB" d="M25.029 10.15v4.936H13.08l-.098-1.164-.236-2.62-.121-1.152h12.404zm-.029 10.045v5.173h-5.063l-.098-1.164-.236-2.62-.121-1.39h5.518z"/>
</svg> 