<svg xmlns="http://www.w3.org/2000/svg" viewBox="0 0 50 50" width="100%" height="100%">
  <path fill="#2396ED" d="M39.813 21.031a4.075 4.075 0 00-2.063-1.125.154.154 0 00-.125 0 5.875 5.875 0 00-2.094 2.406.187.187 0 000 .157.122.122 0 00.125.062 5.766 5.766 0 002.532-.531c.625.961.195 2.195-.438 3.125-.441.668-1.359 1.34-2.844 1.344H3.75a.75.75 0 00-.75.75c.012 5.105 2.672 9.5 6.688 12.062a20.87 20.87 0 0010.625 3.156c9.726.25 18.148-4.148 22.125-13.968.191-.508.363-.871.531-1.188 2.273-.211 4.395-1.457 5.469-3.844 0-.03.93-2.968-8.625-2.968v-.031zm-12.907-2.5h-3.187v3.126h3.187V18.53zm0-3.937h-3.187v3.125h3.187v-3.125zm0-3.969h-3.187v3.125h3.187v-3.125zm3.969 7.906h-3.188v3.125h3.188v-3.125zm-7.969 0h-3.187v3.125h3.187v-3.125zm-7.968 0H11.75v3.125h3.188v-3.125zm-3.97 0H7.783v3.125H10.97v-3.125zm7.969-3.937h-3.187v3.125h3.187v-3.125zm-7.968 0H7.783v3.125H10.97v-3.125z"/>
</svg> 