<svg xmlns="http://www.w3.org/2000/svg" viewBox="0 0 50 50" width="100%" height="100%">
  <path fill="#009688" d="M22.5 2L2 13v24l20.5 11L43 37V13L22.5 2z"/>
  <path fill="#fff" d="M34.667 19.667v4.266h-4.229l6.187 8.229-.156.172h-2.562l-5.052-6.932-2.438 2.046v4.886h-2.125V19.667h2.125v6.146l7.386-6.146h2.864z"/>
  <path fill="#fff" d="M16.26 19.667h3.376c3.095 0 4.943 1.802 4.943 4.54v.062c0 3.039-2.342 4.648-5.177 4.648h-1.016v3.417H16.26V19.667zm3.23 7.25c1.726 0 2.734-.932 2.734-2.485v-.063c0-1.625-1.055-2.485-2.788-2.485H18.38v5.033h1.11z"/>
</svg> 