<svg xmlns="http://www.w3.org/2000/svg" viewBox="0 0 50 50" width="100%" height="100%">
  <path fill="#F05033" d="M49.004 24.678L27.592 3.266a3.53 3.53 0 00-5 0l-4.44 4.441 6.32 6.32c1.47-.498 3.147-.164 4.318 1.008a4.234 4.234 0 011.02 4.382l6.091 6.092c1.788-.713 4.078-.258 5.6 1.26 2.113 2.117 2.113 5.547 0 7.669-2.117 2.117-5.55 2.117-7.67 0-1.587-1.586-1.979-3.916-1.176-5.867l-5.683-5.683v14.944c.513.254 1 .598 1.426 1.035 2.114 2.114 2.114 5.535 0 7.652-2.115 2.119-5.54 2.119-7.654 0-2.114-2.117-2.114-5.538 0-7.653.523-.523 1.128-.918 1.77-1.186V22.262c-.644-.265-1.239-.658-1.77-1.185-1.604-1.602-1.988-3.959-1.156-5.926L13.67 8.32 1.284 20.704c-1.38 1.382-1.38 3.618 0 5l21.411 21.412c1.38 1.381 3.618 1.381 5 0l21.309-21.308c1.381-1.383 1.381-3.622 0-5"/>
</svg> 