<svg xmlns="http://www.w3.org/2000/svg" viewBox="0 0 50 50" width="100%" height="100%">
  <path fill="#000" d="M25 2C12.311 2 2 12.311 2 25s10.31 23 23 23 23-10.31 23-23S37.689 2 25 2zm0 2c11.607 0 21 9.393 21 21 0 9.28-6.004 17.139-14.328 19.906-.026-.32-.079-.719-.109-1.203-.138-2.176-.259-4.103.096-5.125.348-1.016 1.146-3.402 1.146-3.402s.292-.625.292-1.547c0-1.448-.838-2.53-1.885-2.53-.887 0-1.323.659-1.323 1.459 0 .891.574 2.222.87 3.448.246 1.044.521 2.166.521 2.912 0 1.761-1.792 2.099-2.75 2.099-2.145 0-3.895-2.235-3.895-5.172 0-2.729 1.875-6.09 6.458-6.09 3.13 0 5.5 2.234 5.5 5.17 0 3.089-1.974 5.578-4.724 5.578-1.375 0-2.662-.729-3.104-1.589 0 0-.681 2.615-.85 3.255-.319 1.226-1.417 3.207-2.115 4.287C20.71 45.688 22.806 46 25 46c11.607 0 21-9.393 21-21 0-11.607-9.393-21-21-21zm-.063 8.844c-7.819 0-14.156 6.337-14.156 14.156 0 6.253 4.052 11.55 9.688 13.406.708.133.969-.304.969-.68 0-.337-.014-1.227-.016-2.406-3.948.857-4.781-1.904-4.781-1.904-.644-1.641-1.578-2.078-1.578-2.078-1.291-.883.095-.865.095-.865 1.427.1 2.18 1.466 2.18 1.466 1.267 2.175 3.332 1.546 4.138 1.182.127-.92.499-1.547.905-1.903-3.151-.359-6.46-1.575-6.46-7.016 0-1.55.555-2.815 1.456-3.808-.14-.357-.63-1.796.14-3.743 0 0 1.19-.381 3.899 1.454a13.56 13.56 0 013.55-.477c1.207.006 2.424.164 3.553.477 2.702-1.835 3.891-1.454 3.891-1.454.772 1.947.285 3.386.139 3.743.907.993 1.45 2.258 1.45 3.808 0 5.456-3.314 6.653-6.47 7.005.502.432.967 1.29.967 2.604 0 1.884-.018 3.403-.018 3.865 0 .38.259.82.977.68a14.161 14.161 0 009.828-13.587c.001-7.82-6.336-14.157-14.156-14.157z"/>
</svg> 