<svg xmlns="http://www.w3.org/2000/svg" viewBox="0 0 50 50" width="100%" height="100%">
  <path fill="#F7DF1E" d="M0 0h50v50H0z"/>
  <path d="M13.229 41.953l3.557-2.151c.686 1.215 1.31 2.241 2.808 2.241 1.437 0 2.346-.562 2.346-2.747V23.205h4.369v16.15c0 4.526-2.656 6.588-6.526 6.588-3.5 0-5.527-1.812-6.554-3.991M28.82 41.348l3.556-2.06c.934 1.525 2.15 2.656 4.301 2.656 1.812 0 2.965-.905 2.965-2.151 0-1.494-1.185-2.026-3.181-2.9l-1.09-.468c-3.152-1.34-5.244-3.026-5.244-6.586 0-3.275 2.498-5.77 6.395-5.77 2.778 0 4.775.968 6.213 3.494l-3.401 2.185c-.75-1.34-1.559-1.872-2.812-1.872-1.28 0-2.092.81-2.092 1.872 0 1.311.81 1.841 2.685 2.652l1.09.468c3.715 1.592 5.806 3.215 5.806 6.867 0 3.932-3.089 6.085-7.237 6.085-4.055 0-6.679-1.935-7.954-4.461"/>
</svg> 