<svg xmlns="http://www.w3.org/2000/svg" viewBox="0 0 50 50" width="100%" height="100%">
  <path fill="#252F3E" d="M14.13 21.26c0 .605.064 1.094.19 1.457.14.364.31.762.53 1.188.083.146.12.292.12.438 0 .19-.115.383-.356.574l-1.185.79c-.168.11-.337.167-.504.167-.195 0-.39-.094-.585-.282a5.846 5.846 0 01-.696-.907c-.195-.324-.39-.7-.597-1.146-1.5 1.77-3.387 2.665-5.656 2.665-1.617 0-2.902-.464-3.86-1.385-.958-.927-1.435-2.157-1.435-3.697 0-1.636.58-2.957 1.74-3.97 1.16-1.012 2.708-1.52 4.645-1.52.644 0 1.313.06 2.008.177.695.115 1.41.287 2.15.51v-1.365c0-1.418-.297-2.414-.89-2.988-.597-.574-1.608-.86-3.035-.86-.654 0-1.325.077-2.008.24-.686.16-1.355.365-2.008.614-.3.125-.522.198-.664.22a1.175 1.175 0 01-.293.032c-.26 0-.39-.198-.39-.573v-.907c0-.302.04-.52.117-.647.08-.125.22-.25.434-.364.544-.302 1.195-.553 1.953-.75.758-.198 1.565-.303 2.422-.303 1.844 0 3.2.428 4.063 1.27.856.845 1.285 2.124 1.285 3.844v5.082zm-7.805 2.373c.63 0 1.285-.115 1.97-.344.685-.23 1.296-.645 1.825-1.25.31-.365.53-.782.666-1.26.136-.48.204-1.057.204-1.729v-.834a15.51 15.51 0 00-1.72-.355 13.037 13.037 0 00-1.747-.125c-1.246 0-2.165.25-2.762.75-.597.5-.89 1.21-.89 2.145 0 .875.225 1.541.673 1.989.444.447 1.067.676 1.878.676zm14.34 1.676c-.335 0-.566-.063-.712-.177-.147-.115-.273-.354-.39-.72l-4.36-14.335c-.118-.396-.176-.656-.176-.782 0-.32.153-.49.458-.49h1.867c.36 0 .61.063.747.178.147.114.252.354.37.72l3.114 12.271 2.895-12.271c.092-.396.19-.636.297-.75.11-.114.368-.178.747-.178h1.524c.367 0 .61.063.748.178.146.114.257.354.37.75l2.933 12.417 3.211-12.417c.118-.396.244-.636.39-.75.147-.114.392-.178.73-.178h1.779c.306 0 .48.146.48.469 0 .094-.11.198-.37.323a4.626 4.626 0 00-.174.49l-4.47 14.335c-.119.396-.245.636-.393.75-.146.115-.39.177-.712.177h-1.638c-.367 0-.61-.062-.747-.198a1.328 1.328 0 01-.352-.729l-2.881-11.99-2.865 11.969c-.094.396-.19.636-.316.75-.12.115-.376.198-.745.198h-1.635zm25.622.417c-1.42 0-2.841-.167-4.253-.49-.357-.093-.6-.208-.73-.364-.117-.136-.176-.323-.176-.54v-.938c0-.395.147-.593.44-.593a1.03 1.03 0 01.333.052c.11.032.273.094.48.167 1.063.334 2.145.5 3.252.5 1.028 0 1.825-.178 2.383-.53.557-.355.84-.865.84-1.521 0-.448-.14-.823-.427-1.126-.291-.302-.835-.573-1.628-.823l-2.331-.73c-1.177-.374-2.04-.924-2.605-1.656-.562-.728-.84-1.537-.84-2.425 0-1.104.309-2.012.927-2.718.618-.708 1.464-1.244 2.535-1.62.56-.188 1.157-.334 1.786-.438a11.5 11.5 0 012.008-.177c.587 0 1.177.031 1.765.094.588.063 1.143.15 1.669.26.303.095.525.21.664.344.138.136.208.312.208.542v.865c0 .396-.147.604-.44.604-.13 0-.342-.063-.637-.188-.885-.271-1.881-.407-2.982-.407-.934 0-1.662.146-2.184.447-.522.303-.783.771-.783 1.416 0 .448.16.834.48 1.147.321.313.919.615 1.784.907l2.281.73c1.16.376 1.995.9 2.5 1.563.5.667.752 1.444.752 2.332 0 1.146-.333 2.08-.998 2.802-.666.726-1.566 1.252-2.7 1.584-.57.167-1.158.292-1.769.375-.61.094-1.258.136-1.936.136z"/>
  <path fill="#F90" d="M42.647 34.953c-5.144 3.802-12.623 5.82-19.063 5.82-9.022 0-17.155-3.334-23.31-8.883-.483-.437-.05-1.032.529-.698 6.636 3.865 14.843 6.197 23.33 6.197 5.72 0 12.018-1.188 17.798-3.646.874-.365 1.607.573.716 1.21zm2.139-2.447c-.655-.84-4.355-.407-6.026-.203-.502.063-.582-.377-.124-.698 2.944-2.073 7.784-1.47 8.342-.782.56.7-.147 5.498-2.889 7.799-.421.354-.825.167-.636-.302.618-1.533 1.992-4.959 1.333-5.814z"/>
</svg> 